<svg xmlns="http://www.w3.org/2000/svg" width="297" height="297" viewBox="0 0 297 297">
<defs>
    <style>
      .cls-1 {
        fill: #fff;
        fill-rule: evenodd;
      }
    </style>
  </defs>
  <g>
    <path class="cls-1" d="M6212.22,655.38l-45.54-45.645c-9.07-9.05-24.1-8.774-33.48.633l-22.95,22.991c-1.44-.8-2.94-1.641-4.52-2.528-14.49-8.048-34.32-19.069-55.19-40-20.93-20.969-31.94-40.87-39.99-55.4-0.85-1.542-1.67-3.024-2.47-4.434l15.4-15.406,7.57-7.6c9.4-9.424,9.66-24.478.61-33.555L5986.12,428.8c-9.05-9.067-24.08-8.791-33.48.628,0,0-16.23,7.55-20.64,21.577a94.079,94.079,0,0,0-5,21c-6.01,49.958,29.18,89.045,91,151,85.46,85.634,129.36,92.647,149,93,6.47-.777,12.7-1.544,19-4,6.78-2.655,9.51-5.693,15-10l11-12C6221.38,680.576,6221.26,664.48,6212.22,655.38Z" transform="translate(-5923 -421)"/>
  </g>
</svg>
