<svg xmlns="http://www.w3.org/2000/svg" width="297" height="297" viewBox="0 0 297 297">
<defs>
    <style>
      .cls-1, .cls-2 {
        fill: #fff;
      }

      .cls-1 {
        fill-rule: evenodd;
      }
    </style>
  </defs>
  <g>
    <g>
      <path class="cls-1" d="M2400.41,570.429h254.18A20.413,20.413,0,0,1,2675,590.841V634.3a53.668,53.668,0,0,1-28.97,8.561c-30.09,0-31.17-18.438-58.61-18.438-31.47,0-28.23,18.438-59.92,18.438-32.84,0-26.86-18.438-58.6-18.438-31.01,0-28.62,18.438-58.61,18.438-18.41,0-30.29-8.561-30.29-8.561v-43.46A20.413,20.413,0,0,1,2400.41,570.429Z" transform="translate(-2379 -443)"/>
      <path class="cls-1" d="M2401.07,652.739a52.334,52.334,0,0,0,9.22.658c29.89,0,32.77-18.437,59.26-18.437,26.13,0,22.84,18.437,58.61,18.437,32.06,0,31.4-18.437,57.94-18.437,26.79,0,26.01,18.437,60.59,18.437a31.136,31.136,0,0,0,7.24-.658v82.969a3.3,3.3,0,0,1-3.29,3.292H2404.36a3.3,3.3,0,0,1-3.29-3.292V652.739Z" transform="translate(-2379 -443)"/>
      <path class="cls-1" d="M2464.29,444s21.07,42.437,21.07,61.568c0,12.547-9.44,22.718-21.07,22.718s-21.08-10.171-21.08-22.718C2443.21,486,2464.29,444,2464.29,444Z" transform="translate(-2379 -443)"/>
      <path class="cls-1" d="M2527.5,444s21.07,42.437,21.07,61.568c0,12.547-9.43,22.718-21.07,22.718s-21.07-10.171-21.07-22.718C2506.43,486,2527.5,444,2527.5,444Z" transform="translate(-2379 -443)"/>
      <path class="cls-1" d="M2590.71,444s21.08,42.437,21.08,61.568c0,12.547-9.44,22.718-21.08,22.718s-21.07-10.171-21.07-22.718C2569.64,486,2590.71,444,2590.71,444Z" transform="translate(-2379 -443)"/>
      <rect class="cls-2" x="74.75" y="95.813" width="21.06" height="32.281"/>
      <rect class="cls-2" x="137.97" y="95.813" width="21.06" height="32.281"/>
      <rect class="cls-2" x="201.19" y="95.813" width="21.06" height="32.281"/>
    </g>
  </g>
</svg>
