<svg xmlns="http://www.w3.org/2000/svg" width="297" height="297" viewBox="0 0 297 297">
<defs>
    <style>
      .cls-1, .cls-2 {
        fill: #fff;
      }

      .cls-1 {
        fill-rule: evenodd;
      }
    </style>
  </defs>
  <g>
    <path class="cls-1" d="M8461,575c2.17-6.4,4-14.373,4-21.5a63.458,63.458,0,1,0-34.17,56.337c-8.28-2.625-16.24-9.128-21.67-15.46A41,41,0,1,1,8443,554a40.8,40.8,0,0,1-2.2,13.277C8442.99,570.051,8449.21,575.491,8461,575Z" transform="translate(-8320 -421)"/>
    <rect class="cls-2" x="70" y="183" width="24" height="114"/>
    <rect class="cls-2" x="32" y="241" width="100" height="24"/>
    <path class="cls-1" d="M8452.35,502.36a41,41,0,1,1-30.59,25.871c-3.52-3.67-12.16-7.834-21.3-6.824a63.506,63.506,0,1,0,30.1-34.323A57.592,57.592,0,0,1,8452.35,502.36Z" transform="translate(-8320 -421)"/>
    <path class="cls-1" d="M8507.07,521.553l-14.67-18.994,90.22-69.683,14.67,18.994Z" transform="translate(-8320 -421)"/>
    <path class="cls-1" d="M8603.15,430.347L8525,427l64,80Z" transform="translate(-8320 -421)"/>
  </g>
</svg>
